<svg width="921" height="279" viewBox="0 0 921 279" fill="none" xmlns="http://www.w3.org/2000/svg">
<path d="M0 3L69.699 124.596L139.937 3H103.808L69.699 62.5263L36.1291 3H0Z" fill="#4200DB"/>
<path d="M99.7367 177L201 3H164.871L82.239 146.474L99.7367 177Z" fill="#4200DB"/>
<path d="M806.978 106.765V176.886H756.064V3.1084H807.587L853.623 73.2292C860.534 83.5948 865.818 92.3345 869.477 99.4482H870.391V70.1804V3.1084H921V176.886H869.172L821.916 103.716L808.197 82.9851H807.282L806.978 106.765Z" fill="white"/>
<path d="M644.914 180.849C614.629 180.849 591.866 173.735 576.622 159.508C561.582 145.077 554.061 122.009 554.061 90.3019C554.061 59.2048 562.395 36.5426 579.061 22.3152C595.727 8.08782 617.78 0.974121 645.218 0.974121C702.941 0.974121 731.802 29.7338 731.802 87.2531C731.802 116.318 724.689 139.183 710.461 155.85C696.437 172.516 674.588 180.849 644.914 180.849ZM643.694 144.874C649.385 144.874 654.161 143.959 658.023 142.13C661.885 140.098 664.934 136.643 667.169 131.765C671.437 123.431 673.572 109.814 673.572 90.9116C673.572 72.416 671.437 59.0016 667.169 50.6684C662.901 42.132 655.076 37.6605 643.694 37.254C639.426 37.254 634.954 37.7621 630.28 38.7784C625.808 39.5914 622.963 40.8108 621.743 42.4368C619.304 45.2823 617.373 51.3798 615.951 60.7292C614.731 69.8754 614.121 79.9362 614.121 90.9116C614.121 107.984 615.747 120.484 618.999 128.411C621.235 134.305 624.385 138.573 628.45 141.216C632.515 143.655 637.597 144.874 643.694 144.874Z" fill="white"/>
<path d="M474.42 3.1084H529.297V176.886H474.42V3.1084Z" fill="white"/>
<path d="M367.212 50.0587C367.212 54.3269 369.346 57.6805 373.615 60.1195C378.086 62.5585 384.997 65.2007 394.346 68.0462C405.525 71.7047 414.671 75.2615 421.785 78.7168C429.102 82.172 435.402 87.5581 440.687 94.875C446.174 102.192 448.918 111.745 448.918 123.533C448.918 161.337 424.325 180.239 375.139 180.239C367.009 180.239 357.05 179.528 345.261 178.105C333.676 176.683 323.107 174.853 313.555 172.618C313.961 168.349 314.774 162.15 315.994 154.02C317.416 145.687 318.738 139.488 319.957 135.423C327.071 136.439 337.741 137.659 351.969 139.082C366.399 140.504 377.273 141.216 384.59 141.216C388.858 141.216 391.399 140.911 392.212 140.301C393.431 139.488 394.346 138.167 394.956 136.338C395.769 134.305 396.175 132.578 396.175 131.155C396.175 127.09 394.244 124.041 390.383 122.009C386.521 119.773 379.915 117.131 370.566 114.082C359.387 110.627 350.139 107.07 342.822 103.411C335.506 99.753 329.103 94.062 323.615 86.3386C318.128 78.6151 315.384 68.4527 315.384 55.8513C315.384 46.9083 317.416 38.1687 321.481 29.6322C325.546 20.8925 329.713 14.9983 333.981 11.9496C337.233 9.71386 343.94 7.57974 354.103 5.54725C364.265 3.51477 373.818 2.49854 382.761 2.49854C405.525 2.49854 424.122 4.63265 438.553 8.90087C438.349 12.9658 437.638 18.5552 436.418 25.6689C435.402 32.7826 434.284 39.2865 433.065 45.1807L426.053 44.8759C399.63 43.0466 382.761 42.132 375.444 42.132C372.395 42.132 370.668 42.2336 370.261 42.4369C369.448 42.8434 368.737 43.758 368.127 45.1807C367.517 46.6035 367.212 48.2295 367.212 50.0587Z" fill="white"/>
<path d="M231.475 3.1084H286.352V176.886H231.475V3.1084Z" fill="white"/>
<path d="M597.67 264.611H570.411L565.389 278.51H556.781L579.378 216.369H588.793L611.3 278.51H602.692L597.67 264.611ZM595.339 257.976L584.04 226.412L572.742 257.976H595.339Z" fill="white"/>
<path d="M530.956 216.011V222.647H513.919V278.51H505.759V222.647H488.632V216.011H530.956Z" fill="white"/>
<path d="M449.283 264.611H422.024L417.002 278.51H408.394L430.991 216.369H440.406L462.912 278.51H454.304L449.283 264.611ZM446.951 257.976L435.653 226.412L424.355 257.976H446.951Z" fill="white"/>
<path d="M348.672 216.011C355.487 216.011 361.375 217.296 366.337 219.867C371.358 222.378 375.184 225.994 377.814 230.717C380.504 235.439 381.849 240.999 381.849 247.395C381.849 253.792 380.504 259.351 377.814 264.074C375.184 268.736 371.358 272.323 366.337 274.834C361.375 277.285 355.487 278.51 348.672 278.51H329.214V216.011H348.672ZM348.672 271.785C356.742 271.785 362.899 269.663 367.144 265.419C371.388 261.114 373.51 255.107 373.51 247.395C373.51 239.624 371.358 233.556 367.054 229.193C362.81 224.829 356.682 222.647 348.672 222.647H337.374V271.785H348.672Z" fill="white"/>
</svg>
