<svg width="922" height="278" viewBox="0 0 922 278" fill="none" xmlns="http://www.w3.org/2000/svg">
<path d="M0.5 2.02588L70.199 123.622L140.437 2.02588H104.308L70.199 61.5522L36.6291 2.02588H0.5Z" fill="#4200DB"/>
<path d="M100.237 176.026L201.5 2.02588H165.371L82.739 145.5L100.237 176.026Z" fill="#4200DB"/>
<path d="M807.478 105.791V175.912H756.564V2.13428H808.087L854.123 72.2551C861.034 82.6207 866.318 91.3604 869.977 98.4741H870.891V69.2063V2.13428H921.5V175.912H869.672L822.416 102.742L808.697 82.011H807.783L807.478 105.791Z" fill="#1A1A1A"/>
<path d="M645.414 179.875C615.13 179.875 592.366 172.761 577.122 158.534C562.082 144.103 554.562 121.035 554.562 89.3277C554.562 58.2307 562.895 35.5685 579.561 21.3411C596.228 7.1137 618.28 0 645.719 0C703.441 0 732.302 28.7597 732.302 86.279C732.302 115.344 725.189 138.209 710.961 154.875C696.937 171.542 675.088 179.875 645.414 179.875ZM644.194 143.9C649.885 143.9 654.661 142.985 658.523 141.156C662.385 139.124 665.434 135.668 667.669 130.79C671.938 122.457 674.072 108.84 674.072 89.9375C674.072 71.4419 671.938 58.0275 667.669 49.6943C663.401 41.1578 655.576 36.6864 644.194 36.2799C639.926 36.2799 635.454 36.788 630.78 37.8042C626.308 38.6172 623.463 39.8367 622.243 41.4627C619.804 44.3082 617.873 50.4057 616.451 59.7551C615.231 68.9013 614.622 78.9621 614.622 89.9375C614.622 107.01 616.247 119.51 619.499 127.437C621.735 133.331 624.886 137.599 628.951 140.242C633.015 142.68 638.097 143.9 644.194 143.9Z" fill="#1A1A1A"/>
<path d="M474.92 2.13428H529.797V175.912H474.92V2.13428Z" fill="#1A1A1A"/>
<path d="M367.712 49.0846C367.712 53.3528 369.846 56.7064 374.115 59.1454C378.586 61.5844 385.497 64.2266 394.846 67.0721C406.025 70.7306 415.171 74.2874 422.285 77.7426C429.602 81.1979 435.902 86.5839 441.187 93.9009C446.674 101.218 449.418 110.771 449.418 122.559C449.418 160.363 424.825 179.265 375.639 179.265C367.509 179.265 357.55 178.554 345.761 177.131C334.176 175.708 323.607 173.879 314.055 171.643C314.461 167.375 315.274 161.176 316.494 153.046C317.916 144.713 319.238 138.514 320.457 134.449C327.571 135.465 338.241 136.685 352.469 138.107C366.899 139.53 377.773 140.242 385.09 140.242C389.358 140.242 391.899 139.937 392.712 139.327C393.931 138.514 394.846 137.193 395.456 135.364C396.269 133.331 396.675 131.604 396.675 130.181C396.675 126.116 394.744 123.067 390.883 121.035C387.021 118.799 380.415 116.157 371.066 113.108C359.887 109.653 350.639 106.096 343.322 102.437C336.006 98.7789 329.603 93.0879 324.115 85.3645C318.628 77.641 315.884 67.4786 315.884 54.8772C315.884 45.9342 317.916 37.1945 321.981 28.6581C326.046 19.9184 330.213 14.0242 334.481 10.9755C337.733 8.73974 344.44 6.60562 354.603 4.57313C364.765 2.54065 374.318 1.52441 383.261 1.52441C406.025 1.52441 424.622 3.65852 439.053 7.92675C438.849 11.9917 438.138 17.581 436.918 24.6947C435.902 31.8084 434.784 38.3124 433.565 44.2066L426.553 43.9017C400.13 42.0725 383.261 41.1579 375.944 41.1579C372.895 41.1579 371.168 41.2595 370.761 41.4628C369.948 41.8693 369.237 42.7839 368.627 44.2066C368.017 45.6294 367.712 47.2554 367.712 49.0846Z" fill="#1A1A1A"/>
<path d="M231.975 2.13428H286.852V175.912H231.975V2.13428Z" fill="#1A1A1A"/>
<path d="M598.17 263.637H570.911L565.889 277.536H557.281L579.878 215.395H589.293L611.8 277.536H603.192L598.17 263.637ZM595.839 257.001L584.54 225.438L573.242 257.001H595.839Z" fill="#1A1A1A"/>
<path d="M531.456 215.037V221.673H514.419V277.536H506.259V221.673H489.132V215.037H531.456Z" fill="#1A1A1A"/>
<path d="M449.783 263.637H422.524L417.502 277.536H408.894L431.491 215.395H440.906L463.412 277.536H454.804L449.783 263.637ZM447.451 257.001L436.153 225.438L424.855 257.001H447.451Z" fill="#1A1A1A"/>
<path d="M349.172 215.037C355.987 215.037 361.875 216.322 366.837 218.893C371.858 221.404 375.684 225.02 378.314 229.743C381.004 234.465 382.349 240.025 382.349 246.421C382.349 252.817 381.004 258.377 378.314 263.099C375.684 267.762 371.858 271.349 366.837 273.86C361.875 276.311 355.987 277.536 349.172 277.536H329.714V215.037H349.172ZM349.172 270.811C357.242 270.811 363.399 268.689 367.644 264.444C371.888 260.14 374.01 254.133 374.01 246.421C374.01 238.65 371.858 232.582 367.554 228.218C363.31 223.855 357.182 221.673 349.172 221.673H337.874V270.811H349.172Z" fill="#1A1A1A"/>
</svg>
