<svg width="922" height="181" viewBox="0 0 922 181" fill="none" xmlns="http://www.w3.org/2000/svg">
<path d="M0.383545 2.53613L70.4293 124.133L141.016 2.53613H104.708L70.4293 62.0625L36.6924 2.53613H0.383545Z" fill="#4200DB"/>
<path d="M100.616 176.536L202.384 2.53613H166.075L83.0317 146.01L100.616 176.536Z" fill="#4200DB"/>
<path d="M807.604 106.318V176.432H756.695V2.67041H808.214L854.246 72.7847C861.155 83.1494 866.439 91.8883 870.097 99.0013H871.012V69.7362V2.67041H921.616V176.432H869.793L822.542 103.269L808.824 82.5397H807.909L807.604 106.318Z" fill="white"/>
<path d="M645.556 180.394C615.274 180.394 592.513 173.281 577.27 159.055C562.231 144.626 554.712 121.559 554.712 89.8556C554.712 58.7614 563.044 36.1013 579.709 21.8752C596.374 7.64917 618.424 0.536133 645.86 0.536133C703.578 0.536133 732.436 29.2931 732.436 86.8071C732.436 115.869 725.323 138.732 711.097 155.397C697.074 172.062 675.227 180.394 645.556 180.394ZM644.336 144.423C650.027 144.423 654.803 143.508 658.664 141.679C662.525 139.647 665.574 136.192 667.809 131.314C672.077 122.982 674.211 109.366 674.211 90.4653C674.211 71.9714 672.077 58.5582 667.809 50.2258C663.541 41.6901 655.717 37.2191 644.336 36.8126C640.068 36.8126 635.597 37.3207 630.923 38.3369C626.452 39.1498 623.607 40.3691 622.387 41.995C619.949 44.8402 618.018 50.9371 616.595 60.2857C615.376 69.431 614.766 79.4909 614.766 90.4653C614.766 107.537 616.392 120.035 619.644 127.961C621.879 133.855 625.029 138.123 629.094 140.765C633.159 143.203 638.239 144.423 644.336 144.423Z" fill="white"/>
<path d="M475.078 2.67041H529.95V176.432H475.078V2.67041Z" fill="white"/>
<path d="M367.88 49.6161C367.88 53.8839 370.014 57.2372 374.282 59.6759C378.753 62.1147 385.663 64.7567 395.011 67.6019C406.189 71.26 415.334 74.8165 422.447 78.2714C429.764 81.7263 436.064 87.1119 441.348 94.4282C446.835 101.744 449.579 111.296 449.579 123.084C449.579 160.884 424.988 179.785 375.806 179.785C367.677 179.785 357.719 179.073 345.931 177.651C334.347 176.228 323.779 174.399 314.228 172.164C314.634 167.896 315.447 161.697 316.666 153.568C318.089 145.236 319.41 139.037 320.629 134.973C327.742 135.989 338.412 137.208 352.638 138.631C367.067 140.053 377.94 140.765 385.256 140.765C389.524 140.765 392.065 140.46 392.877 139.85C394.097 139.037 395.011 137.716 395.621 135.887C396.434 133.855 396.84 132.127 396.84 130.705C396.84 126.64 394.91 123.592 391.048 121.559C387.187 119.324 380.582 116.682 371.233 113.633C360.056 110.179 350.809 106.622 343.493 102.964C336.176 99.3057 329.775 93.6153 324.287 85.8926C318.8 78.1698 316.057 68.0083 316.057 55.4081C316.057 46.466 318.089 37.7271 322.153 29.1915C326.218 20.4526 330.384 14.5589 334.652 11.5105C337.904 9.27496 344.61 7.14103 354.772 5.10874C364.933 3.07644 374.485 2.0603 383.427 2.0603C406.189 2.0603 424.784 4.19422 439.214 8.46204C439.011 12.5266 438.299 18.1154 437.08 25.2285C436.064 32.3415 434.946 38.8449 433.727 44.7385L426.715 44.4337C400.295 42.6046 383.427 41.6901 376.111 41.6901C373.063 41.6901 371.335 41.7917 370.929 41.9949C370.116 42.4014 369.404 43.3159 368.795 44.7385C368.185 46.1611 367.88 47.787 367.88 49.6161Z" fill="white"/>
<path d="M232.155 2.67041H287.027V176.432H232.155V2.67041Z" fill="white"/>
</svg>
